<svg width="145" height="144" viewBox="0 0 145 144" fill="none" xmlns="http://www.w3.org/2000/svg">
<path d="M124.176 26.0721C124.465 25.8187 124.493 25.379 124.237 25.0933C113.256 12.8514 98.289 4.89946 81.9984 2.65212C81.6182 2.59967 81.2696 2.86918 81.221 3.24993C81.1723 3.63067 81.442 3.97845 81.8222 4.03098C97.7771 6.23531 112.436 14.0234 123.192 26.0111C123.449 26.2967 123.888 26.3256 124.176 26.0721Z" fill="#C4C4C4" stroke="#4AC29D" stroke-width="5" stroke-miterlimit="1.30541" stroke-linecap="round" stroke-linejoin="round"/>
<path d="M63.7335 3.25576C63.6846 2.87505 63.3358 2.60577 62.9556 2.65848C46.065 5.00006 30.6152 13.4721 19.5574 26.4741C8.49959 39.4762 2.61827 56.0859 3.01919 73.1334C3.02822 73.5171 3.35001 73.8181 3.73363 73.8053C4.11725 73.7924 4.41743 73.4705 4.40848 73.0868C4.0191 56.3852 9.7826 40.1131 20.6162 27.3747C31.4498 14.6362 46.5853 6.33466 63.1327 4.03722C63.5129 3.98443 63.7824 3.63647 63.7335 3.25576Z" fill="#C4C4C4" stroke="#689FF8" stroke-width="5" stroke-miterlimit="1.30541" stroke-linecap="round" stroke-linejoin="round"/>
<path d="M5.83281 88.518C5.4609 88.613 5.23605 88.9916 5.3347 89.3626C8.18716 100.088 13.5679 109.978 21.0304 118.203C28.4929 126.427 37.8151 132.74 48.2139 136.619C48.5736 136.753 48.9722 136.566 49.1028 136.205C49.2333 135.844 49.0462 135.446 48.6866 135.311C38.501 131.51 29.3699 125.325 22.0598 117.269C14.7497 109.212 9.47791 99.5247 6.68158 89.0188C6.58285 88.6479 6.20472 88.4231 5.83281 88.518Z" fill="#C4C4C4" stroke="#BCBECA" stroke-width="5" stroke-miterlimit="1.30541" stroke-linecap="round" stroke-linejoin="round"/>
<path d="M65.6902 139.967C65.6522 140.349 65.9312 140.69 66.3135 140.724C78.6561 141.827 91.0738 139.61 102.278 134.297C113.692 128.885 123.415 120.464 130.401 109.941C137.388 99.4166 141.375 87.1876 141.932 74.5679C142.48 62.1798 139.703 49.8752 133.895 38.9286C133.715 38.5895 133.293 38.4647 132.956 38.648C132.618 38.8313 132.494 39.2532 132.674 39.5923C138.361 50.3169 141.08 62.3709 140.544 74.5065C139.997 86.8738 136.09 98.8583 129.243 109.172C122.396 119.485 112.868 127.737 101.683 133.041C90.7065 138.246 78.5422 140.419 66.4511 139.341C66.0688 139.307 65.7282 139.585 65.6902 139.967Z" fill="#C4C4C4" stroke="#FF9F00" stroke-width="5" stroke-miterlimit="1.30541" stroke-linecap="round" stroke-linejoin="round"/>
</svg>
